<svg width="427" height="420" viewBox="0 0 427 420" fill="none" xmlns="http://www.w3.org/2000/svg">
<g filter="url(#filter0_d_2002_3194)">
<path d="M50 49C50 35.7452 60.7452 25 74 25H353C366.255 25 377 35.7452 377 49V321C377 334.255 366.255 345 353 345H74C60.7452 345 50 334.255 50 321V49Z" fill="white"/>
<path d="M210 121C245.346 121 274 149.654 274 185C274 220.346 245.346 249 210 249C174.654 249 146 220.346 146 185C146 149.654 174.654 121 210 121Z" fill="#2DBE60"/>
<path d="M210 121C245.346 121 274 149.654 274 185C274 220.346 245.346 249 210 249C174.654 249 146 220.346 146 185C146 149.654 174.654 121 210 121Z" stroke="#E5E7EB"/>
<path d="M210 161.131C210.431 161.131 210.863 161.225 211.256 161.403L228.909 168.894C230.972 169.766 232.509 171.8 232.5 174.256C232.453 183.556 228.628 200.572 212.475 208.306C210.909 209.056 209.091 209.056 207.525 208.306C191.372 200.572 187.547 183.556 187.5 174.256C187.491 171.8 189.028 169.766 191.091 168.894L208.753 161.403C209.138 161.225 209.569 161.131 210 161.131ZM210 167.394V202.831C222.938 196.569 226.416 182.703 226.5 174.387L210 167.394Z" fill="white"/>
<path d="M239 133.5C239 125.768 245.268 119.5 253 119.5C260.732 119.5 267 125.768 267 133.5C267 141.232 260.732 147.5 253 147.5C245.268 147.5 239 141.232 239 133.5Z" fill="#0C7A43"/>
<path d="M251.125 130.875V132H254.875V130.875C254.875 129.839 254.036 129 253 129C251.964 129 251.125 129.839 251.125 130.875ZM249.625 132V130.875C249.625 129.012 251.137 127.5 253 127.5C254.863 127.5 256.375 129.012 256.375 130.875V132H256.75C257.577 132 258.25 132.673 258.25 133.5V138C258.25 138.827 257.577 139.5 256.75 139.5H249.25C248.423 139.5 247.75 138.827 247.75 138V133.5C247.75 132.673 248.423 132 249.25 132H249.625Z" fill="white"/>
</g>
<defs>
<filter id="filter0_d_2002_3194" x="0" y="0" width="427" height="420" filterUnits="userSpaceOnUse" color-interpolation-filters="sRGB">
<feFlood flood-opacity="0" result="BackgroundImageFix"/>
<feColorMatrix in="SourceAlpha" type="matrix" values="0 0 0 0 0 0 0 0 0 0 0 0 0 0 0 0 0 0 127 0" result="hardAlpha"/>
<feOffset dy="25"/>
<feGaussianBlur stdDeviation="25"/>
<feColorMatrix type="matrix" values="0 0 0 0 0 0 0 0 0 0 0 0 0 0 0 0 0 0 0.25 0"/>
<feBlend mode="normal" in2="BackgroundImageFix" result="effect1_dropShadow_2002_3194"/>
<feBlend mode="normal" in="SourceGraphic" in2="effect1_dropShadow_2002_3194" result="shape"/>
</filter>
</defs>
</svg>
