<svg width="419" height="420" viewBox="0 0 419 420" fill="none" xmlns="http://www.w3.org/2000/svg">
<g filter="url(#filter0_d_189_6380)">
<path d="M50 49C50 35.7452 60.7452 25 74 25H345C358.255 25 369 35.7452 369 49V321C369 334.255 358.255 345 345 345H74C60.7452 345 50 334.255 50 321V49Z" fill="white"/>
<path d="M146 139C146 103.654 174.654 75 210 75C245.346 75 274 103.654 274 139C274 174.346 245.346 203 210 203C174.654 203 146 174.346 146 139Z" fill="#2DBE60" fill-opacity="0.1"/>
<path d="M183 123H237C237 119.691 234.309 117 231 117H189C185.691 117 183 119.691 183 123ZM183 126V153C183 156.309 185.691 159 189 159H231C234.309 159 237 156.309 237 153V126H183ZM189 151.997C189 149.231 191.241 147 193.997 147H205.003C207.769 147 210 149.241 210 151.997C210 152.55 209.55 153 208.997 153H190.003C189.45 153 189 152.55 189 151.997ZM199.5 132C201.091 132 202.617 132.632 203.743 133.757C204.868 134.883 205.5 136.409 205.5 138C205.5 139.591 204.868 141.117 203.743 142.243C202.617 143.368 201.091 144 199.5 144C197.909 144 196.383 143.368 195.257 142.243C194.132 141.117 193.5 139.591 193.5 138C193.5 136.409 194.132 134.883 195.257 133.757C196.383 132.632 197.909 132 199.5 132ZM216 133.5C216 132.675 216.675 132 217.5 132H229.5C230.325 132 231 132.675 231 133.5C231 134.325 230.325 135 229.5 135H217.5C216.675 135 216 134.325 216 133.5ZM216 139.5C216 138.675 216.675 138 217.5 138H229.5C230.325 138 231 138.675 231 139.5C231 140.325 230.325 141 229.5 141H217.5C216.675 141 216 140.325 216 139.5ZM216 145.5C216 144.675 216.675 144 217.5 144H229.5C230.325 144 231 144.675 231 145.5C231 146.325 230.325 147 229.5 147H217.5C216.675 147 216 146.325 216 145.5Z" fill="#2DBE60"/>
<path d="M146 243C146 234.163 153.163 227 162 227H258C266.837 227 274 234.163 274 243V279C274 287.837 266.837 295 258 295H162C153.163 295 146 287.837 146 279V243Z" fill="#2DBE60" fill-opacity="0.1"/>
<path d="M204.17 269.982L203.432 271.711C202.336 271.154 201.328 270.469 200.414 269.666L201.744 268.336C202.477 268.975 203.291 269.531 204.17 269.982ZM197.379 259.688H195.498C195.58 260.93 195.814 262.131 196.184 263.268L197.93 262.57C197.643 261.65 197.449 260.684 197.379 259.688ZM197.379 257.812C197.461 256.711 197.684 255.645 198.029 254.643L196.301 253.904C195.861 255.135 195.586 256.447 195.498 257.812H197.379ZM198.768 252.92C199.225 252.047 199.775 251.232 200.414 250.488L199.084 249.158C198.281 250.072 197.59 251.08 197.039 252.176L198.768 252.92ZM218.262 268.336C217.447 269.039 216.539 269.643 215.561 270.117L216.258 271.863C217.471 271.283 218.59 270.539 219.592 269.66L218.262 268.336ZM201.738 249.164C202.553 248.461 203.461 247.857 204.439 247.383L203.742 245.637C202.529 246.217 201.41 246.961 200.414 247.84L201.738 249.164ZM221.232 264.58C220.775 265.453 220.225 266.268 219.586 267.012L220.916 268.342C221.719 267.428 222.41 266.414 222.961 265.324L221.232 264.58ZM222.621 259.688C222.539 260.789 222.316 261.855 221.971 262.857L223.699 263.596C224.139 262.359 224.414 261.047 224.496 259.682H222.621V259.688ZM213.82 270.82C212.9 271.113 211.934 271.301 210.938 271.371V273.252C212.18 273.17 213.381 272.936 214.518 272.566L213.82 270.82ZM209.062 271.371C207.961 271.289 206.895 271.066 205.893 270.721L205.154 272.449C206.391 272.889 207.703 273.164 209.068 273.246V271.371H209.062ZM222.07 254.93C222.363 255.85 222.551 256.816 222.621 257.812H224.502C224.42 256.57 224.186 255.369 223.816 254.232L222.07 254.93ZM200.414 267.012C199.711 266.197 199.107 265.289 198.633 264.311L196.887 265.008C197.467 266.221 198.211 267.34 199.09 268.342L200.414 267.012ZM210.938 246.129C212.039 246.211 213.1 246.434 214.107 246.779L214.846 245.051C213.615 244.611 212.303 244.336 210.938 244.248V246.129ZM206.18 246.68C207.1 246.387 208.066 246.199 209.062 246.129V244.248C207.82 244.33 206.619 244.564 205.482 244.934L206.18 246.68ZM220.916 249.158L219.586 250.488C220.289 251.303 220.893 252.211 221.373 253.189L223.119 252.492C222.539 251.279 221.795 250.16 220.916 249.158ZM218.262 249.164L219.592 247.834C218.678 247.031 217.67 246.34 216.574 245.789L215.836 247.518C216.703 247.975 217.523 248.525 218.262 249.164Z" fill="#2DBE60"/>
<path d="M210 266.719C210.906 266.719 211.641 265.984 211.641 265.078C211.641 264.172 210.906 263.438 210 263.438C209.094 263.438 208.359 264.172 208.359 265.078C208.359 265.984 209.094 266.719 210 266.719Z" fill="#2DBE60"/>
<path d="M210.451 262.031H209.514C209.127 262.031 208.811 261.715 208.811 261.328C208.811 257.168 213.346 257.584 213.346 255.012C213.346 253.84 212.303 252.656 209.983 252.656C208.278 252.656 207.387 253.219 206.514 254.338C206.285 254.631 205.864 254.689 205.565 254.479L204.797 253.939C204.469 253.711 204.393 253.248 204.645 252.932C205.887 251.338 207.364 250.312 209.989 250.312C213.053 250.312 215.696 252.059 215.696 255.012C215.696 258.973 211.16 258.732 211.16 261.328C211.155 261.715 210.838 262.031 210.451 262.031Z" fill="#2DBE60"/>
<path d="M258 231C258 224.373 263.373 219 270 219C276.627 219 282 224.373 282 231C282 237.627 276.627 243 270 243C263.373 243 258 237.627 258 231Z" fill="#2DBE60"/>
<path d="M275.029 225.97C275.322 226.263 275.322 226.739 275.029 227.032L269.029 233.032C268.737 233.325 268.261 233.325 267.968 233.032L264.968 230.032C264.675 229.739 264.675 229.263 264.968 228.97C265.261 228.677 265.737 228.677 266.029 228.97L268.5 231.438L273.97 225.97C274.263 225.677 274.739 225.677 275.032 225.97H275.029Z" fill="white"/>
</g>
<defs>
<filter id="filter0_d_189_6380" x="0" y="0" width="419" height="420" filterUnits="userSpaceOnUse" color-interpolation-filters="sRGB">
<feFlood flood-opacity="0" result="BackgroundImageFix"/>
<feColorMatrix in="SourceAlpha" type="matrix" values="0 0 0 0 0 0 0 0 0 0 0 0 0 0 0 0 0 0 127 0" result="hardAlpha"/>
<feOffset dy="25"/>
<feGaussianBlur stdDeviation="25"/>
<feColorMatrix type="matrix" values="0 0 0 0 0 0 0 0 0 0 0 0 0 0 0 0 0 0 0.25 0"/>
<feBlend mode="normal" in2="BackgroundImageFix" result="effect1_dropShadow_189_6380"/>
<feBlend mode="normal" in="SourceGraphic" in2="effect1_dropShadow_189_6380" result="shape"/>
</filter>
</defs>
</svg>
